<?xml version="1.0" encoding="UTF-8"?>
<!DOCTYPE svg PUBLIC "-//W3C//DTD SVG 1.1//EN" "http://www.w3.org/Graphics/SVG/1.1/DTD/svg11.dtd">
<!-- Creator: CorelDRAW X8 -->
<svg xmlns="http://www.w3.org/2000/svg" xml:space="preserve" width="700px" height="490px" version="1.1" style="shape-rendering:geometricPrecision; text-rendering:geometricPrecision; image-rendering:optimizeQuality; fill-rule:evenodd; clip-rule:evenodd"
viewBox="0 0 178 125"
 xmlns:xlink="http://www.w3.org/1999/xlink">
 <defs>
  <style type="text/css">
   <![CDATA[
    .fil0 {fill:black}
   ]]>
  </style>
 </defs>
 <g id="Camada_x0020_1">
  <metadata id="CorelCorpID_0Corel-Layer"/>
  <g id="return.svg">
   <g>
    <g>
     <path class="fil0" d="M134 36c0,0 -121,0 -121,0l25 -29c2,-1 2,-4 0,-6 -2,-2 -5,-1 -7,1l-28 32c-4,4 -4,10 0,13l28 33c1,1 2,1 4,1 1,0 2,0 3,-1 2,-2 2,-4 0,-6l-25 -29c0,0 121,0 121,0 19,0 35,16 35,35 0,20 -16,36 -35,36l-22 0c-2,0 -4,2 -4,4 0,3 2,5 4,5l22 0c24,0 44,-20 44,-45 0,-24 -20,-44 -44,-44z"/>
    </g>
   </g>
   <g>
   </g>
   <g>
   </g>
   <g>
   </g>
   <g>
   </g>
   <g>
   </g>
   <g>
   </g>
   <g>
   </g>
   <g>
   </g>
   <g>
   </g>
   <g>
   </g>
   <g>
   </g>
   <g>
   </g>
   <g>
   </g>
   <g>
   </g>
   <g>
   </g>
  </g>
 </g>
</svg>
