<svg height="511pt" viewBox="-70 1 511 511.99899" width="511pt" xmlns="http://www.w3.org/2000/svg"><path d="m87.121094 365.246094h-15.160156c0-42.667969 23.519531-81.445313 61.378906-101.195313l7.011718 13.441407c-32.835937 17.128906-53.230468 50.753906-53.230468 87.753906zm0 0"/><path d="m71.351562 382.226562h16.375v15.160157h-16.375zm0 0"/><path d="m145.640625 389.804688v48.515624h32.746094v25.167969h15.160156v-25.167969h32.746094v-80.65625h-65.492188v-50.332031h50.332031v33.355469h15.160157v-48.515625h-32.746094v-25.164063h-15.160156v25.164063h-32.746094v80.65625h65.492187v50.332031h-50.332031v-33.355468zm0 0"/><path d="m241.957031 229.578125-22.394531-126.914063h38.269531l-25.539062-36.484374-12.421875 8.691406 8.84375 12.636718h-27.222656l24.070312 136.402344c-12.820312-3.59375-26.089844-5.417968-39.597656-5.417968-13.511719 0-26.78125 1.824218-39.597656 5.417968l24.074218-136.402344h-27.222656l42.746094-61.070312 18.347656 26.214844 12.421875-8.691406-30.765625-43.960938-71.867188 102.664062h38.269532l-22.394532 126.914063c-13.976562 5.757813-26.941406 13.625-38.582031 23.445313l9.777344 11.585937c11.539063-9.730469 24.515625-17.332031 38.589844-22.601563 14.734375-5.542968 30.28125-8.355468 46.207031-8.355468s31.472656 2.8125 46.21875 8.359375c24.800781 9.28125 46.027344 25.691406 61.382812 47.457031 15.695313 22.246094 23.992188 48.449219 23.992188 75.777344 0 72.558594-59.03125 131.59375-131.59375 131.59375s-131.59375-59.035156-131.59375-131.59375c0-31.183594 11.097656-61.421875 31.253906-85.148438l-11.554687-9.816406c-22.480469 26.464844-34.859375 60.191406-34.859375 94.964844 0 80.917968 65.832031 146.753906 146.753906 146.753906 80.917969 0 146.753906-65.835938 146.753906-146.753906 0-30.472656-9.253906-59.699219-26.765625-84.519532-16.191406-22.949218-38.253906-40.550781-64-51.148437zm0 0"/><path d="m256.820312 165.941406 11.621094-11.621094v63.566407h15.160156v-63.566407l11.617188 11.621094 10.722656-10.722656-29.921875-29.921875-29.917969 29.921875zm0 0"/><path d="m88.332031 154.320312v63.566407h15.160157v-63.566407l11.621093 11.621094 10.722657-10.722656-29.921876-29.921875-29.921874 29.921875 10.722656 10.722656zm0 0"/><path d="m49.621094 198.6875 10.71875-10.722656-29.921875-29.917969-29.917969 29.917969 10.71875 10.722656 11.621094-11.621094v63.566406h15.160156v-63.566406zm0 0"/><path d="m371.433594 187.964844-29.921875-29.917969-29.917969 29.917969 10.71875 10.722656 11.621094-11.621094v63.566406h15.160156v-63.566406l11.621094 11.621094zm0 0"/><path d="m22.839844 267.007812h15.160156v16.371094h-15.160156zm0 0"/><path d="m333.933594 267.007812h15.160156v16.371094h-15.160156zm0 0"/></svg>