<svg height="480pt" viewBox="-16 0 480 480" width="480pt" xmlns="http://www.w3.org/2000/svg"><path d="m161.433594 304c3.25 0 6.464844.65625 9.453125 1.9375l53.113281 22.765625 53.113281-22.765625c2.988281-1.28125 6.203125-1.9375 9.453125-1.9375h161.433594v-280h-32v-24h-144c-19.667969.0078125-37.886719 10.332031-48 27.199219-10.113281-16.867188-28.332031-27.1914065-48-27.199219h-144v24h-32v280h32v24c0 13.253906 10.746094 24 24 24h312c4.417969 0 8 3.582031 8 8v8h-8c-13.253906 0-24 10.746094-24 24v64c0 13.253906 10.746094 24 24 24h32c13.253906 0 24-10.746094 24-24v-64c0-13.253906-10.746094-24-24-24h-8v-8c0-13.253906-10.746094-24-24-24h-312c-4.417969 0-8-3.582031-8-8v-24zm246.566406 88v64c0 4.417969-3.582031 8-8 8h-32c-4.417969 0-8-3.582031-8-8v-64c0-4.417969 3.582031-8 8-8h32c4.417969 0 8 3.582031 8 8zm-136-376h128v240h-112.855469c-5.367187.003906-10.675781 1.09375-15.609375 3.199219l-39.535156 16.722656v-219.921875c.027344-22.082031 17.917969-39.972656 40-40zm-224 0h128c22.082031.027344 39.972656 17.917969 40 40v219.878906l-38.992188-16.679687c-4.96875-2.125-10.316406-3.210938-15.71875-3.199219h-113.289062zm-32 24h16v232h129.289062c3.242188-.003906 6.449219.652344 9.429688 1.929688l53.28125 22.765624 53.785156-22.792968c2.957032-1.257813 6.140625-1.90625 9.359375-1.902344h128.855469v-232h16v248h-145.433594c-5.414062-.015625-10.777344 1.074219-15.757812 3.199219l-46.808594 20.097656-46.808594-20.097656c-4.980468-2.125-10.34375-3.214844-15.757812-3.199219h-145.433594zm0 0"/><path d="m376 392h16v16h-16zm0 0"/></svg>