<svg height="512pt" viewBox="-27 0 512 512.00075" width="512pt" xmlns="http://www.w3.org/2000/svg"><path d="m404.503906 79.683594c-69.90625-13.1875-126.722656-51.023438-154.371094-72.40625h.003907c-12.546875-9.703125-30.074219-9.703125-42.621094 0-27.648437 21.378906-84.464844 59.21875-154.371094 72.40625-33.996093 6.414062-57.09375 38.417968-52.582031 72.863281 6.734375 51.414063 21.320312 127.277344 52.546875 196.722656 38.003906 84.503907 90.859375 138.257813 157.097656 159.765625 6.089844 1.976563 12.351563 2.964844 18.617188 2.964844 6.261719 0 12.527343-.988281 18.617187-2.964844 66.238282-21.507812 119.09375-75.261718 157.09375-159.765625 31.230469-69.445312 45.8125-145.308593 52.550782-196.71875 4.511718-34.449219-18.585938-66.453125-52.582032-72.867187zm32.75 70.265625c-6.5625 50.082031-20.726562 123.894531-50.957031 191.117187-35.589844 79.140625-84.386719 129.253906-145.03125 148.945313-8.140625 2.644531-16.742187 2.644531-24.878906 0-60.648438-19.691407-109.445313-69.804688-145.035157-148.945313-30.230468-67.226562-44.394531-141.035156-50.957031-191.117187-3.136719-23.933594 12.878907-46.164063 36.457031-50.613281 74.019532-13.964844 133.832032-53.757813 162.898438-76.238282 2.671875-2.066406 5.875-3.097656 9.074219-3.097656 3.203125 0 6.40625 1.03125 9.074219 3.097656h.003906c29.0625 22.480469 88.878906 62.273438 162.894531 76.238282 23.578125 4.449218 39.59375 26.679687 36.457031 50.613281zm0 0"/><path d="m370.320312 133.28125c-57.855468-5.328125-106.503906-38.125-124.734374-51.976562-9.867188-7.496094-23.652344-7.496094-33.519532 0-18.230468 13.855468-66.878906 46.648437-124.738281 51.976562-7.34375.675781-13.96875 4.160156-18.652344 9.804688-4.625 5.574218-6.796875 12.589843-6.125 19.761718 2.742188 29.183594 10.578125 86.347656 32.253907 141.320313 27.441406 69.582031 67.828124 113.308593 120.039062 129.964843 4.574219 1.460938 9.277344 2.1875 13.980469 2.1875s9.410156-.726562 13.980469-2.1875c32.746093-10.445312 61.171874-31.894531 84.484374-63.746093 18.417969-25.164063 33.71875-56.90625 45.46875-94.351563 1.652344-5.269531-1.277343-10.878906-6.546874-12.535156-5.265626-1.652344-10.878907 1.277344-12.535157 6.546875-11.09375 35.347656-25.402343 65.132813-42.523437 88.527344-20.761719 28.359375-45.800782 47.371093-74.425782 56.503906-5.097656 1.628906-10.707031 1.628906-15.804687 0-109.613281-34.96875-133.691406-203.332031-138.460937-254.101563-.171876-1.847656.398437-3.664062 1.601562-5.121093 1.273438-1.527344 3.082031-2.472657 5.101562-2.660157 60.738282-5.59375 110.652344-37.464843 135-55.964843 2.746094-2.085938 6.574219-2.085938 9.320313 0 24.347656 18.5 74.265625 50.371093 135.003906 55.964843 2.019531.1875 3.828125 1.132813 5.097657 2.660157 1.207031 1.457031 1.777343 3.273437 1.601562 5.121093-1.023438 10.917969-2.4375 22.1875-4.191406 33.492188-.847656 5.457031 2.890625 10.566406 8.347656 11.414062 5.464844.851563 10.570312-2.890624 11.417969-8.347656 1.816406-11.699218 3.277343-23.371094 4.339843-34.6875.671876-7.171875-1.5-14.191406-6.125-19.761718-4.6875-5.644532-11.3125-9.128907-18.65625-9.804688zm0 0"/><path d="m228.824219 248.058594c-23.171875 0-42.023438 18.851562-42.023438 42.023437s18.851563 42.023438 42.023438 42.023438 42.023437-18.851563 42.023437-42.023438-18.851562-42.023437-42.023437-42.023437zm0 64.050781c-12.144531 0-22.023438-9.882813-22.023438-22.027344s9.878907-22.023437 22.023438-22.023437 22.023437 9.878906 22.023437 22.023437-9.878906 22.027344-22.023437 22.027344zm0 0"/><path d="m228.824219 142.148438c-27.992188 0-50.765625 22.769531-50.765625 50.761718v25.476563h-5.742188c-11.578125 0-20.996094 9.417969-20.996094 20.992187v57.878906c0 38.777344 31.550782 70.328126 70.332032 70.328126h14.34375c38.78125 0 70.332031-31.550782 70.332031-70.328126v-57.878906c0-11.574218-9.417969-20.992187-20.992187-20.992187h-5.746094v-25.476563c0-27.992187-22.773438-50.761718-50.765625-50.761718zm-30.765625 50.761718c0-16.960937 13.800781-30.765625 30.765625-30.765625 16.964843 0 30.765625 13.804688 30.765625 30.765625v25.476563h-61.53125zm88.269531 46.46875v57.875c0 27.753906-22.578125 50.332032-50.332031 50.332032h-14.34375c-27.753906 0-50.332032-22.578126-50.332032-50.332032v-57.875c0-.546875.445313-.992187.996094-.992187h113.019532c.546874 0 .992187.445312.992187.992187zm0 0"/><path d="m383.410156 235.125c0 5.519531-4.472656 9.996094-9.996094 9.996094-5.519531 0-9.996093-4.476563-9.996093-9.996094s4.476562-9.996094 9.996093-9.996094c5.523438 0 9.996094 4.476563 9.996094 9.996094zm0 0"/></svg>